HIERARCHY
ROOT hip
{
	OFFSET 0.000000 0.000000 0.000000 
	CHANNELS 6 Xposition Yposition Zposition Xrotation Zrotation Yrotation
	JOINT abdomen
	{
		OFFSET 0.000000 3.402643 0.000000 
		CHANNELS 3 Xrotation Zrotation Yrotation
		JOINT chest
		{
			OFFSET 0.000000 8.438565 -0.680529 
			CHANNELS 3 Xrotation Zrotation Yrotation
			JOINT neck
			{
				OFFSET 0.000000 10.207942 -0.272212 
				CHANNELS 3 Xrotation Zrotation Yrotation
				JOINT head
				{
					OFFSET 0.000000 3.130431 0.000000 
					CHANNELS 3 Xrotation Zrotation Yrotation
					End Site
					{
						OFFSET 0.000000 3.130435 0.000000 
					}
				}
			}
			JOINT lCollar
			{
				OFFSET 3.470700 6.669187 -0.816635 
				CHANNELS 3 Yrotation Zrotation Xrotation
				JOINT lShldr
				{
					OFFSET 3.198488 0.000000 0.000000 
					CHANNELS 3 Zrotation Yrotation Xrotation
					JOINT lForeArm
					{
						OFFSET 10.139888 0.000000 0.000000 
						CHANNELS 3 Yrotation Zrotation Xrotation
						JOINT lHand
						{
							OFFSET 8.370511 0.000000 0.000000 
							CHANNELS 3 Zrotation Yrotation Xrotation
							End Site
							{
								OFFSET 4.083176 0.000000 0.000000 
							}
						}
					}
				}
			}
			JOINT rCollar
			{
				OFFSET -3.470700 6.669187 -0.816635 
				CHANNELS 3 Yrotation Zrotation Xrotation
				JOINT rShldr
				{
					OFFSET -3.198488 0.000000 0.000000 
					CHANNELS 3 Zrotation Yrotation Xrotation
					JOINT rForeArm
					{
						OFFSET -10.139888 0.000000 0.000000 
						CHANNELS 3 Yrotation Zrotation Xrotation
						JOINT rHand
						{
							OFFSET -8.370511 0.000000 0.000000 
							CHANNELS 3 Zrotation Yrotation Xrotation
							End Site
							{
								OFFSET -4.083176 0.000000 0.000000 
							}
						}
					}
				}
			}
		}
	}
	JOINT lThigh
	{
		OFFSET 5.308129 -1.633274 1.361059 
		CHANNELS 3 Xrotation Zrotation Yrotation
		JOINT lShin
		{
			OFFSET -2.041588 -20.007561 0.000000 
			CHANNELS 3 Xrotation Zrotation Yrotation
			JOINT lFoot
			{
				OFFSET 0.000000 -19.190928 -1.224953 
				CHANNELS 3 Xrotation Yrotation Zrotation
				End Site
				{
					OFFSET 0.000000 -2.449906 4.627600 
				}
			}
		}
	}
	JOINT rThigh
	{
		OFFSET -5.308129 -1.633274 1.361059 
		CHANNELS 3 Xrotation Zrotation Yrotation
		JOINT rShin
		{
			OFFSET 2.041588 -20.007561 0.000000 
			CHANNELS 3 Xrotation Zrotation Yrotation
			JOINT rFoot
			{
				OFFSET 0.000000 -19.190928 -1.224953 
				CHANNELS 3 Xrotation Yrotation Zrotation
				End Site
				{
					OFFSET 0.000000 -2.449906 4.627600 
				}
			}
		}
	}
}
MOTION
Frames: 11
Frame Time: 0.050666
-33.965286 42.621101 21.916595 -1.162847 -2.040596 24.826929 0.000000 0.000000 0.000000 -0.322278 0.507804 -2.092700 4.573870 0.558219 -8.851934 13.994369 -0.525011 -6.514475 -7.044434 -3.731143 0.148922 -40.199066 -12.943721 -18.350273 -83.507851 5.486926 58.754204 36.371731 7.032193 -2.353348 0.344645 -0.143054 0.261997 -14.983429 -1.126003 -33.161510 65.044044 -1.095202 40.779186 -45.320774 -4.205174 -3.179399 5.194666 12.196779 10.181984 9.981920 -1.607813 20.353806 -7.858997 0.866192 -12.572403 0.350494 -5.395839 -7.012816 12.664452 2.497560 -29.365862 -7.012527 -0.580403 9.317018 
-33.793259 42.596558 21.983419 -1.153349 -2.392094 24.569975 0.000000 0.000000 0.000000 -0.439469 0.488267 -2.191245 4.532860 0.587081 -9.385235 13.789495 -0.739150 -6.903142 -6.998282 -3.375417 0.062437 -40.379410 -12.704738 -18.251335 -83.832909 5.518809 59.323135 36.565132 7.401327 -2.223231 0.459059 -0.357427 0.165078 -17.221613 2.678287 -27.188866 53.400936 -2.649384 38.868401 -45.234844 -3.492157 -3.457888 4.839299 12.385273 10.228806 11.045497 -1.597802 20.511538 -8.533649 0.951975 -12.728010 0.458404 -5.259964 -6.872970 12.379954 2.476497 -29.180460 -6.738426 -0.552893 9.439446 
-33.608898 42.590145 22.055401 -1.182487 -2.167507 24.097818 0.000000 0.000000 0.000000 -0.488285 0.234366 -2.160200 4.911633 0.115771 -10.750134 10.449652 -1.239591 -8.262811 -6.870494 -3.894818 -0.021902 -39.853664 -12.376691 -18.538820 -83.709244 5.521312 59.219597 35.701839 7.201200 -2.327190 0.189895 -1.198128 0.127674 -17.852053 7.139703 -24.042103 44.089760 -2.842983 36.532322 -40.762581 -3.424832 -3.489947 4.617554 11.863827 9.913371 11.693708 -1.531739 21.527420 -8.863451 0.973708 -12.589468 0.439345 -5.809683 -7.128804 12.590934 2.453606 -28.329269 -6.807163 -0.589561 9.638494 
-33.455246 42.600582 22.111902 -1.104432 -2.333551 23.414465 0.000000 0.000000 0.000000 -0.458991 0.312490 -1.857972 5.470569 0.504186 -13.095882 3.733730 -2.958052 -10.373426 -6.853788 -3.471701 0.017722 -40.524788 -11.695684 -18.557240 -84.073280 5.482524 58.845524 35.190933 6.883836 -2.432918 0.761790 -0.496582 0.143028 -19.284552 9.174181 -22.813669 40.470303 -2.757969 36.294022 -41.150761 -2.663955 -3.762447 4.657194 11.679434 9.844823 11.842293 -1.435319 22.602819 -8.977683 1.001420 -12.687853 0.614215 -5.707051 -6.892030 11.947940 2.269586 -28.064823 -6.359694 -0.559880 9.649997 
-33.344501 42.613926 22.158339 -0.566959 -2.529173 22.603508 0.000000 0.000000 0.000000 -0.761753 0.546827 -1.784614 5.351167 0.978804 -14.858396 -1.882771 -4.792042 -11.605022 -6.480905 -3.296031 -0.219984 -41.038559 -10.799941 -17.963835 -84.238770 5.414194 58.916870 35.882748 7.030211 -2.366195 1.148934 -0.209294 -0.136427 -19.987907 11.445452 -23.047861 39.495079 -2.617361 35.669941 -41.285278 -2.694997 -3.753584 4.546588 11.672183 9.870178 11.563213 -1.490189 23.452164 -8.996104 1.009225 -12.813900 0.320797 -5.548418 -6.650098 11.252771 2.270057 -27.803823 -5.934092 -0.508814 9.490373 
-33.275791 42.609764 22.228561 -0.762400 -2.421661 21.995466 0.000000 0.000000 0.000000 -0.673845 0.410128 -1.616152 5.105139 1.033885 -15.605604 -3.721899 -5.123919 -12.280602 -6.658525 -3.197968 -0.155107 -41.654041 -10.088269 -17.988110 -84.428864 5.418599 59.678749 35.106117 7.190331 -2.347716 1.622506 -0.023908 -0.061695 -20.535549 13.359770 -22.981161 38.104698 -2.478618 35.446983 -41.234531 -2.945506 -3.666487 4.498996 11.392114 9.797974 12.256872 -1.539281 24.582260 -9.259356 1.022530 -12.666010 0.419537 -5.846232 -6.747816 11.356720 2.224708 -27.177197 -5.915513 -0.504129 9.566403 
-33.202927 42.618206 22.267826 -0.664647 -2.402182 21.629787 0.000000 0.000000 0.000000 -0.712933 0.624952 -1.697229 4.549043 0.513459 -15.533539 -3.912605 -4.843609 -12.403274 -6.542760 -4.151520 -0.213863 -41.188751 -10.200973 -18.203796 -84.600403 5.462228 59.780125 34.255302 7.305186 -2.345470 1.557757 -0.317742 -0.099060 -20.816540 15.007631 -24.135851 37.529488 -2.384382 35.571476 -40.213413 -3.201758 -3.572946 4.664755 11.117887 9.644575 11.926584 -1.432930 25.294127 -9.154809 1.021631 -12.770629 0.419376 -5.944335 -6.744907 11.076754 2.219182 -26.695770 -5.774743 -0.500156 9.510991 
-33.198021 42.615051 22.328732 -0.684210 -2.431467 21.347752 0.000000 0.000000 0.000000 -0.810600 0.654231 -1.591287 4.326480 0.407647 -14.908413 -3.612548 -4.505438 -12.053720 -6.509688 -4.045165 -0.297972 -41.649986 -9.961666 -18.066765 -85.503929 5.398129 59.917259 33.330917 7.022094 -2.452645 1.794500 0.000370 -0.194731 -21.259699 15.277931 -24.914408 37.859112 -2.390580 35.335678 -40.228271 -3.487246 -3.467007 5.066927 11.044116 9.688146 11.523383 -1.411224 25.503149 -9.070739 1.025967 -12.883991 0.468443 -5.947162 -6.704932 11.038897 2.171251 -26.487499 -5.772078 -0.483743 9.539375 
-33.179520 42.625755 22.387375 -0.909130 -2.587565 21.262098 0.000000 0.000000 0.000000 -0.732499 0.830010 -1.690298 4.276216 0.418087 -13.971283 -3.654668 -4.084720 -11.222873 -6.618360 -3.849220 -0.198994 -42.718536 -9.815073 -19.635227 -88.386032 5.090312 59.914097 30.378237 7.384648 -2.467977 1.777640 0.306117 -0.128499 -21.501513 15.114854 -25.702625 38.944683 -2.458794 35.423241 -39.499657 -3.876244 -3.336705 5.555762 11.043934 9.821966 11.159364 -1.338009 25.548702 -8.965147 1.014027 -12.971721 1.073685 -5.800354 -6.674173 10.514561 2.125086 -26.464211 -5.574219 -0.482077 9.545214 
-33.214508 42.632805 22.428650 -0.576852 -2.783062 20.653366 0.000000 0.000000 0.000000 -1.093915 0.995912 -1.552216 3.900811 0.635918 -13.165921 -3.833790 -4.263174 -10.506455 -6.359448 -3.190854 -0.485918 -45.259769 -10.002481 -23.040527 -91.969887 4.410818 61.117645 30.420395 7.231337 -2.505212 2.067072 0.428823 -0.458099 -21.279099 14.899766 -26.105787 39.483047 -2.483609 35.507862 -39.478092 -4.129237 -3.250206 5.505997 11.248285 9.983435 11.195759 -1.306824 26.057383 -9.032973 1.040950 -13.090720 0.956738 -5.566050 -6.510882 10.016786 2.184058 -26.049484 -5.383043 -0.447394 9.310465 
-33.259182 42.604614 22.438843 -0.703967 -2.802523 19.927347 0.000000 0.000000 0.000000 -1.162268 0.947071 -1.347336 3.821446 0.585709 -12.383455 -3.866239 -3.833453 -10.091051 -6.285552 -3.185192 -0.563903 -48.276440 -11.419016 -29.541300 -95.765251 2.701455 59.495380 29.418718 7.060727 -2.578736 2.257271 0.637723 -0.533898 -21.394833 15.177363 -26.280027 39.166409 -2.389274 35.154366 -39.854008 -4.200339 -3.224249 5.405586 11.223527 10.017258 11.887122 -1.315179 26.997475 -9.214810 1.069661 -13.266451 0.722105 -5.651750 -6.492203 10.748700 2.203177 -25.301086 -5.806578 -0.482090 9.381431 
